<svg id="Layer_1" data-name="Layer 1" xmlns="http://www.w3.org/2000/svg" viewBox="0 0 2470 2481"><defs><style>.cls-1{fill:#6fb2c3;}.cls-2{fill:#fff;}</style></defs><title>logo</title><rect class="cls-1" x="566.19" y="818.89" width="52.31" height="1215.91"/><rect class="cls-1" x="566.19" y="818.89" width="52.31" height="1215.91"/><path class="cls-1" d="M780.2,2195.43v135.44c0,33.12-28.12,60-62.8,60H499.54c-34.81,0-63-27-63-60.21V2189.81c0-85.93,69.14-156.41,157.21-163.47C696.05,2018.13,780.2,2097.35,780.2,2195.43Z" transform="translate(-16 -11)"/><path class="cls-1" d="M679.34,2492c-7.22,0-13.08-11.18-13.08-25V2340.88c0-13.79,5.86-25,13.08-25s13.08,11.19,13.08,25V2467C692.42,2480.82,686.56,2492,679.34,2492Z" transform="translate(-16 -11)"/><path class="cls-1" d="M534.62,2492c-7.22,0-13.07-11.18-13.07-25V2340.88c0-13.79,5.85-25,13.07-25s13.08,11.19,13.08,25V2467C547.7,2480.82,541.85,2492,534.62,2492Z" transform="translate(-16 -11)"/><rect class="cls-1" x="1199.07" y="445.57" width="52.31" height="1215.91"/><rect class="cls-1" x="1199.07" y="445.57" width="52.31" height="1215.91"/><path class="cls-1" d="M1413.08,1822.11v135.44c0,33.12-28.12,60-62.8,60H1132.42c-34.81,0-63-27-63-60.2V1816.49c0-85.93,69.14-156.41,157.21-163.47C1328.94,1644.8,1413.08,1724,1413.08,1822.11Z" transform="translate(-16 -11)"/><path class="cls-1" d="M1312.22,2118.68c-7.22,0-13.08-11.18-13.08-25V1967.56c0-13.79,5.86-25,13.08-25s13.08,11.19,13.08,25V2093.7C1325.3,2107.5,1319.44,2118.68,1312.22,2118.68Z" transform="translate(-16 -11)"/><path class="cls-1" d="M1167.5,2118.68c-7.22,0-13.07-11.18-13.07-25V1967.56c0-13.79,5.85-25,13.07-25s13.08,11.19,13.08,25V2093.7C1180.58,2107.5,1174.73,2118.68,1167.5,2118.68Z" transform="translate(-16 -11)"/><rect class="cls-1" x="1833.65" y="680.74" width="52.31" height="1215.91"/><rect class="cls-1" x="1833.65" y="680.74" width="52.31" height="1215.91"/><path class="cls-1" d="M2047.65,2057.29v135.43c0,33.12-28.11,60-62.79,60H1767c-34.82,0-63-27-63-60.2V2051.67c0-85.93,69.14-156.41,157.21-163.48C1963.51,1880,2047.65,1959.21,2047.65,2057.29Z" transform="translate(-16 -11)"/><path class="cls-1" d="M1946.8,2353.86c-7.23,0-13.08-11.19-13.08-25V2202.74c0-13.8,5.85-25,13.08-25s13.08,11.18,13.08,25v126.14C1959.88,2342.67,1954,2353.86,1946.8,2353.86Z" transform="translate(-16 -11)"/><path class="cls-1" d="M1802.08,2353.86c-7.22,0-13.08-11.19-13.08-25V2202.74c0-13.8,5.86-25,13.08-25s13.08,11.18,13.08,25v126.14C1815.16,2342.67,1809.31,2353.86,1802.08,2353.86Z" transform="translate(-16 -11)"/><ellipse class="cls-2" cx="954.48" cy="638.31" rx="668.42" ry="638.31"/><ellipse class="cls-2" cx="1622.9" cy="723.73" rx="578.97" ry="552.89"/><ellipse class="cls-2" cx="2201.87" cy="1020.57" rx="268.13" ry="256.05"/><ellipse class="cls-2" cx="268.13" cy="1020.57" rx="268.13" ry="256.05"/><polygon class="cls-2" points="954.48 1276.62 1622.9 1276.62 1288.69 982.27 954.48 1276.62"/><polygon class="cls-2" points="2201.87 1276.62 1461.04 1276.62 1831.45 909.06 2201.87 1276.62"/><polygon class="cls-2" points="268.13 1276.62 1327.61 1276.62 598.72 836.79 268.13 1276.62"/></svg>